# xmcd CD database file
#
# Track frame offsets:
#	150
#	15295
#	25861
#	36467
#	51276
#	64597
#	77004
#	93929
#	106615
#	119821
#	131605
#	147790
#	161169
#	177421
#	193217
#
# Disc length: 2788 seconds
#
# Revision: 2
# Processed by: cddbd v1.5.1PL0 Copyright (c) Steve Scherf et al.
# Submitted via: CDex 1.51
#
DISCID=ca0ae20f
DTITLE=Borderline - Cést la Vie
DYEAR=2005
DGENRE=Country
TTITLE0=Lay down Sally
TTITLE1=Mexico Americano
TTITLE2=Black
TTITLE3=Did I tell you
TTITLE4=Cruz de Olvido
TTITLE5=Streets of Bakersfield
TTITLE6=Mendocino
TTITLE7=Just loving you
TTITLE8=Mexican Joe
TTITLE9=Mi primer Amor
TTITLE10=Rockin´Blues number Eleven
TTITLE11=Jeanette
TTITLE12=You never can tell
TTITLE13=I´m gonna love you
TTITLE14=Crying Time
EXTD=YEAR: 2005
EXTT0=
EXTT1=
EXTT2=
EXTT3=
EXTT4=
EXTT5=
EXTT6=
EXTT7=
EXTT8=
EXTT9=
EXTT10=
EXTT11=
EXTT12=
EXTT13=
EXTT14=
PLAYORDER=
